<?xml version="1.0" standalone="no"?>
<!DOCTYPE svg PUBLIC "-//W3C//DTD SVG 20010904//EN"
 "http://www.w3.org/TR/2001/REC-SVG-20010904/DTD/svg10.dtd">
<svg version="1.0" xmlns="http://www.w3.org/2000/svg"
 width="206.000000pt" height="100.000000pt" viewBox="0 0 206.000000 100.000000"
 preserveAspectRatio="xMidYMid meet">

<g transform="translate(0.000000,100.000000) scale(0.100000,-0.100000)"
fill="#000000" stroke="none">
<path d="M78 923 c-14 -3 -18 -16 -19 -51 0 -26 -6 -216 -13 -422 -9 -264 -9
-378 -2 -386 15 -16 729 -6 751 10 13 10 12 59 -6 421 -11 226 -22 416 -24
423 -3 9 -79 12 -337 11 -183 -1 -341 -3 -350 -6z"/>
<path d="M1324 849 c-10 -17 13 -36 27 -22 12 12 4 33 -11 33 -5 0 -12 -5 -16
-11z"/>
<path d="M1642 843 c2 -10 10 -18 18 -18 22 0 18 29 -3 33 -14 3 -18 -1 -15
-15z"/>
<path d="M987 843 c-4 -3 -7 -66 -7 -140 0 -110 3 -133 15 -133 11 0 15 21 17
108 l3 107 50 -87 c28 -48 55 -88 62 -88 6 0 34 39 62 88 l51 87 0 -107 c0
-89 3 -108 15 -108 13 0 15 22 15 141 0 108 -3 140 -12 137 -7 -3 -38 -48 -68
-101 -30 -53 -58 -97 -62 -97 -3 0 -29 40 -57 89 -52 90 -73 116 -84 104z"/>
<path d="M1330 675 c0 -63 4 -105 10 -105 6 0 10 42 10 105 0 63 -4 105 -10
105 -6 0 -10 -42 -10 -105z"/>
<path d="M1407 773 c-4 -3 -7 -51 -7 -105 0 -77 3 -98 14 -98 10 0 15 20 18
76 4 87 19 107 78 102 45 -4 60 -33 60 -115 0 -35 4 -63 10 -63 17 0 12 152
-5 177 -28 40 -111 39 -137 -1 -5 -6 -8 -1 -8 12 0 22 -10 28 -23 15z"/>
<path d="M1647 773 c-4 -3 -7 -51 -7 -105 0 -80 3 -98 15 -98 12 0 15 18 15
105 0 96 -5 117 -23 98z"/>
<path d="M980 285 l0 -135 100 0 c93 0 100 1 100 20 0 18 -7 20 -80 20 l-80 0
0 40 0 40 70 0 c63 0 70 2 70 20 0 18 -7 20 -71 20 l-70 0 3 38 3 37 73 3 c55
2 72 6 72 17 0 12 -18 15 -95 15 l-95 0 0 -135z"/>
<path d="M1252 345 c-71 -31 -76 -134 -8 -176 37 -24 97 -20 127 7 18 16 18
19 3 27 -10 6 -20 5 -27 -2 -16 -16 -73 -13 -91 5 -9 8 -16 31 -16 49 0 18 7
41 16 49 18 18 75 21 91 5 7 -7 17 -8 27 -2 15 8 15 11 -2 27 -27 24 -81 29
-120 11z"/>
<path d="M1460 349 c-79 -32 -81 -148 -3 -188 46 -23 121 0 142 45 40 89 -49
180 -139 143z m92 -46 c22 -20 23 -70 1 -95 -20 -22 -70 -23 -95 -1 -22 20
-23 70 -1 95 20 22 70 23 95 1z"/>
<path d="M1640 255 c0 -98 1 -105 20 -105 18 0 20 7 20 69 0 79 13 101 60 101
39 0 50 -23 50 -104 0 -59 2 -66 20 -66 18 0 20 7 20 68 0 76 16 102 61 102
40 0 49 -18 49 -97 0 -66 2 -73 20 -73 18 0 20 7 20 78 0 53 -5 84 -15 99 -21
30 -67 38 -108 18 -30 -14 -36 -14 -63 0 -36 19 -52 19 -86 1 -24 -13 -28 -13
-28 0 0 8 -9 14 -20 14 -19 0 -20 -7 -20 -105z"/>
</g>
</svg>
